<mxfile host="app.diagrams.net" modified="2023-11-08T02:59:22.101Z" agent="Mozilla/5.0 (Macintosh; Intel Mac OS X 10_15_7) AppleWebKit/605.1.15 (KHTML, like Gecko) Version/17.1 Safari/605.1.15" version="22.0.8" etag="cocroOYu5dSvybtjUWG5" type="github">
  <diagram name="第 1 页" id="urw8OuareBNDkT-DWbMb">
    <mxGraphModel>
      <root>
        <mxCell id="0" />
        <mxCell id="1" parent="0" />
      </root>
    </mxGraphModel>
  </diagram>
</mxfile>
